<svg width="22" height="23" viewBox="0 0 22 23" fill="none" xmlns="http://www.w3.org/2000/svg">
<path d="M11 8.22711C9.19779 8.22711 7.72703 9.69786 7.72703 11.5001C7.72703 13.3023 9.19779 14.7731 11 14.7731C12.8023 14.7731 14.273 13.3023 14.273 11.5001C14.273 9.69786 12.8023 8.22711 11 8.22711ZM20.8165 11.5001C20.8165 10.1447 20.8288 8.80166 20.7527 7.44876C20.6766 5.87733 20.3181 4.48269 19.169 3.33358C18.0174 2.18202 16.6252 1.82599 15.0538 1.74987C13.6985 1.67376 12.3554 1.68603 11.0025 1.68603C9.64712 1.68603 8.30404 1.67376 6.95114 1.74987C5.37971 1.82599 3.98507 2.18447 2.83596 3.33358C1.6844 4.48514 1.32837 5.87733 1.25225 7.44876C1.17614 8.80411 1.18841 10.1472 1.18841 11.5001C1.18841 12.853 1.17614 14.1985 1.25225 15.5514C1.32837 17.1229 1.68685 18.5175 2.83596 19.6666C3.98752 20.8182 5.37971 21.1742 6.95114 21.2503C8.30649 21.3264 9.64957 21.3142 11.0025 21.3142C12.3578 21.3142 13.7009 21.3264 15.0538 21.2503C16.6252 21.1742 18.0199 20.8157 19.169 19.6666C20.3206 18.5151 20.6766 17.1229 20.7527 15.5514C20.8313 14.1985 20.8165 12.8555 20.8165 11.5001ZM11 16.536C8.21319 16.536 5.96408 14.2869 5.96408 11.5001C5.96408 8.71327 8.21319 6.46416 11 6.46416C13.7869 6.46416 16.036 8.71327 16.036 11.5001C16.036 14.2869 13.7869 16.536 11 16.536ZM16.2422 7.43402C15.5915 7.43402 15.0661 6.90858 15.0661 6.25791C15.0661 5.60724 15.5915 5.08179 16.2422 5.08179C16.8929 5.08179 17.4183 5.60724 17.4183 6.25791C17.4185 6.41241 17.3882 6.56544 17.3292 6.70822C17.2702 6.851 17.1835 6.98073 17.0743 7.08998C16.965 7.19923 16.8353 7.28586 16.6925 7.34489C16.5497 7.40393 16.3967 7.43422 16.2422 7.43402Z" fill="#F1D229"/>
</svg>
